<svg width="24" height="23" viewBox="0 0 24 23" fill="none" xmlns="http://www.w3.org/2000/svg">
<path d="M23.5586 11.5001C23.5586 5.14878 18.4099 5.53131e-05 12.0586 5.53131e-05C5.70731 5.53131e-05 0.558594 5.14878 0.558594 11.5001C0.558594 17.24 4.76398 21.9976 10.2617 22.8604V14.8243H7.3418V11.5001H10.2617V8.96646C10.2617 6.08427 11.9786 4.49224 14.6054 4.49224C15.8636 4.49224 17.1797 4.71685 17.1797 4.71685V7.54693H15.7296C14.301 7.54693 13.8555 8.4334 13.8555 9.34284V11.5001H17.0449L16.5351 14.8243H13.8555V22.8604C19.3532 21.9976 23.5586 17.24 23.5586 11.5001Z" fill="#1877F2"/>
</svg>
