<svg width="24" height="23" viewBox="0 0 24 23" fill="none" xmlns="http://www.w3.org/2000/svg">
<path d="M0.746094 1.64748C0.746094 0.738125 1.5074 0 2.44587 0H22.0453C22.9842 0 23.7451 0.738125 23.7451 1.64748V21.3518C23.7451 22.2614 22.9842 22.999 22.0453 22.999H2.44587C1.50749 22.999 0.746094 22.2615 0.746094 21.3521V1.64722V1.64748Z" fill="#0A66C2"/>
<path d="M7.73527 19.2469V8.89269H4.29368V19.2469H7.73563H7.73527ZM6.01519 7.47924C7.21509 7.47924 7.96211 6.68416 7.96211 5.69053C7.93965 4.67426 7.21509 3.90137 6.03801 3.90137C4.86012 3.90137 4.09082 4.67426 4.09082 5.69044C4.09082 6.68407 4.83757 7.47915 5.99264 7.47915H6.01492L6.01519 7.47924ZM9.64023 19.2469H13.0816V13.4653C13.0816 13.1562 13.104 12.8464 13.1949 12.6256C13.4436 12.0071 14.0099 11.3668 14.9608 11.3668C16.2058 11.3668 16.7042 12.3162 16.7042 13.7083V19.2469H20.1454V13.3101C20.1454 10.1299 18.4478 8.64995 16.1835 8.64995C14.3272 8.64995 13.5119 9.68751 13.0589 10.3942H13.0818V8.89305H9.64041C9.68533 9.8644 9.64014 19.2473 9.64014 19.2473L9.64023 19.2469Z" fill="white"/>
</svg>
