<svg width="28" height="28" viewBox="0 0 28 28" fill="none" xmlns="http://www.w3.org/2000/svg">
<path d="M5.88274 17.6938C5.88274 19.3127 4.56026 20.6352 2.94137 20.6352C1.32248 20.6352 0 19.3127 0 17.6938C0 16.0749 1.32248 14.7524 2.94137 14.7524H5.88274V17.6938Z" fill="#E01E5A"/>
<path d="M7.36475 17.6938C7.36475 16.0749 8.68722 14.7524 10.3061 14.7524C11.925 14.7524 13.2475 16.0749 13.2475 17.6938V25.0586C13.2475 26.6775 11.925 28 10.3061 28C8.68722 28 7.36475 26.6775 7.36475 25.0586V17.6938Z" fill="#E01E5A"/>
<path d="M10.3061 5.88274C8.68722 5.88274 7.36475 4.56026 7.36475 2.94137C7.36475 1.32248 8.68722 0 10.3061 0C11.925 0 13.2475 1.32248 13.2475 2.94137V5.88274H10.3061Z" fill="#36C5F0"/>
<path d="M10.3062 7.36482C11.9251 7.36482 13.2476 8.6873 13.2476 10.3062C13.2476 11.9251 11.9251 13.2476 10.3062 13.2476H2.94137C1.32248 13.2476 0 11.9251 0 10.3062C0 8.6873 1.32248 7.36482 2.94137 7.36482H10.3062Z" fill="#36C5F0"/>
<path d="M22.1172 10.3062C22.1172 8.6873 23.4397 7.36482 25.0586 7.36482C26.6774 7.36482 27.9999 8.6873 27.9999 10.3062C27.9999 11.9251 26.6774 13.2476 25.0586 13.2476H22.1172V10.3062Z" fill="#2EB67D"/>
<path d="M20.6352 10.3062C20.6352 11.9251 19.3127 13.2476 17.6938 13.2476C16.0749 13.2476 14.7524 11.9251 14.7524 10.3062V2.94137C14.7524 1.32248 16.0749 0 17.6938 0C19.3127 0 20.6352 1.32248 20.6352 2.94137V10.3062Z" fill="#2EB67D"/>
<path d="M17.6938 22.1173C19.3127 22.1173 20.6352 23.4397 20.6352 25.0586C20.6352 26.6775 19.3127 28 17.6938 28C16.0749 28 14.7524 26.6775 14.7524 25.0586V22.1173H17.6938Z" fill="#ECB22E"/>
<path d="M17.6938 20.6352C16.0749 20.6352 14.7524 19.3127 14.7524 17.6938C14.7524 16.0749 16.0749 14.7524 17.6938 14.7524H25.0586C26.6775 14.7524 28 16.0749 28 17.6938C28 19.3127 26.6775 20.6352 25.0586 20.6352H17.6938Z" fill="#ECB22E"/>
</svg>
