<svg width="29" height="24" viewBox="0 0 29 24" fill="none" xmlns="http://www.w3.org/2000/svg">
<path d="M9.19184 23.1113C19.8678 23.1113 25.7061 14.2635 25.7061 6.59089C25.7061 6.33961 25.701 6.08949 25.6897 5.8404C26.8257 5.0181 27.8061 3.99996 28.5849 2.83372C27.5449 3.29625 26.4258 3.60756 25.2518 3.74792C26.4501 3.02911 27.3701 1.89193 27.8041 0.536426C26.6648 1.21256 25.4183 1.68921 24.1185 1.94581C23.0593 0.817198 21.5515 0.111328 19.8818 0.111328C16.6765 0.111328 14.0773 2.71159 14.0773 5.91682C14.0773 6.3725 14.1283 6.8156 14.2279 7.24075C9.4039 6.99793 5.12636 4.68747 2.26361 1.17427C1.748 2.06037 1.4768 3.06744 1.4777 4.09263C1.4777 6.10708 2.50235 7.88539 4.0606 8.92579C3.13887 8.89763 2.23738 8.64857 1.43193 8.19956C1.43106 8.22395 1.43106 8.24769 1.43106 8.27374C1.43106 11.0857 3.43172 13.4334 6.08753 13.9654C5.58873 14.1013 5.07403 14.17 4.55705 14.1697C4.1837 14.1697 3.81984 14.133 3.46622 14.0651C4.20515 16.3721 6.34783 18.0509 8.88824 18.0978C6.90167 19.6555 4.39921 20.5832 1.67941 20.5832C1.21673 20.5836 0.754437 20.5568 0.294922 20.5028C2.86368 22.1499 5.91382 23.1109 9.19213 23.1109" fill="#1D9BF0"/>
</svg>
